<?xml version="1.0" standalone="no"?>
<!DOCTYPE svg PUBLIC "-//W3C//DTD SVG 20010904//EN"
 "http://www.w3.org/TR/2001/REC-SVG-20010904/DTD/svg10.dtd">
<svg version="1.0" xmlns="http://www.w3.org/2000/svg"
 width="700.000000pt" height="700.000000pt" viewBox="0 0 700.000000 700.000000"
 preserveAspectRatio="xMidYMid meet">
<metadata>
Created by potrace 1.11, written by Peter Selinger 2001-2013
</metadata>
<g transform="translate(0.000000,700.000000) scale(0.100000,-0.100000)"
fill="#000000" stroke="none">
<path d="M13 6993 c-10 -4 -13 -710 -13 -3486 0 -1915 4 -3488 8 -3495 7 -9
69 -12 277 -10 l269 3 23 40 22 39 0 1460 c0 921 3 1461 9 1465 13 8 5779 7
5787 -1 4 -3 6 -662 7 -1464 0 -801 4 -1467 8 -1480 5 -12 17 -32 27 -43 17
-20 27 -21 274 -21 142 0 264 3 273 6 15 6 16 322 16 3484 0 1913 -3 3485 -6
3494 -5 14 -39 16 -275 16 l-269 0 -24 -37 -24 -38 0 -1633 c0 -899 -3 -1636
-6 -1639 -7 -8 -5784 -8 -5792 -1 -3 3 -5 735 -5 1626 0 892 -4 1634 -8 1650
-5 16 -17 39 -27 51 -18 20 -25 21 -279 20 -143 0 -266 -3 -272 -6z m292
-3495 l0 -3238 -22 0 -23 0 0 3241 0 3240 23 -3 22 -3 0 -3237z m6435 1 l0
-3240 -22 3 -23 3 0 3238 0 3237 22 0 23 0 0 -3241z m-347 -148 c4 -1 7 -10 7
-21 0 -20 -7 -20 -2900 -20 -2857 0 -2900 0 -2900 19 0 11 8 21 17 23 13 2
5747 1 5776 -1z"/>
</g>
</svg>
